<?xml version="1.0" encoding="UTF-8"?>
<svg version="1.1" xmlns="http://www.w3.org/2000/svg" width="569" height="524">
<path d="M0 0 C187.77 0 375.54 0 569 0 C569 172.92 569 345.84 569 524 C381.23 524 193.46 524 0 524 C0 351.08 0 178.16 0 0 Z " fill="#FEFEFE" transform="translate(0,0)"/>
<path d="M0 0 C4.06443742 0.02034003 8.12885131 0.01421777 12.19332719 0.01189232 C19.01088593 0.01194563 25.82816507 0.03154672 32.64564347 0.0637722 C40.49495359 0.10069782 48.34389879 0.10943872 56.19328445 0.10247469 C63.79123133 0.09614188 71.38905493 0.1069723 78.98697686 0.12644005 C82.19995549 0.13455249 85.41287057 0.13733511 88.62585855 0.13574791 C92.41577633 0.13486063 96.20535432 0.14930837 99.99518228 0.17497444 C102.02619518 0.18539981 104.05726635 0.18149849 106.08830094 0.1769619 C125.08863133 0.35086702 140.89362255 6.38146482 154.33045793 19.82060814 C161.22481421 27.23490079 165.55742146 35.07130626 168.92030168 44.60576439 C169.28768449 45.60865501 169.6550673 46.61154564 170.03358293 47.64482689 C171.57108893 53.22334122 171.28900429 59.05319833 171.29530168 64.79326439 C171.31979386 65.94890892 171.34428605 67.10455345 171.36952043 68.29521751 C171.42549081 84.90909416 164.14914695 99.55480723 152.92030168 111.60576439 C133.3632307 130.13873199 109.99897621 130.21565794 84.75145411 130.07720327 C80.81774342 130.05942309 76.88404316 130.06316126 72.95030046 130.06392479 C66.35558363 130.06206207 59.76105285 130.04483223 53.16639543 130.01738548 C45.56587504 129.98586729 37.96555731 129.97539263 30.36497629 129.97685659 C22.22798581 129.9782116 14.09107227 129.96431694 5.95410514 129.94596338 C3.62659207 129.94172189 1.29909159 129.94028398 -1.02842498 129.93948555 C-4.69432723 129.93746316 -8.3600623 129.92514474 -12.02590919 129.90515327 C-13.99667689 129.89661544 -15.96747891 129.89763849 -17.93826461 129.89903831 C-28.57148946 129.8230646 -37.59204068 128.50361363 -47.07969832 123.60576439 C-48.01813582 123.13396751 -48.95657332 122.66217064 -49.92344832 122.17607689 C-65.57853875 113.74330911 -76.13806445 100.28753458 -81.38829207 83.35967064 C-85.94151287 65.22396069 -83.70989392 47.62537238 -74.82969832 31.29326439 C-69.47152106 22.74078914 -63.26513936 16.06812132 -55.01719832 10.29326439 C-54.47128036 9.89671654 -53.92536239 9.50016869 -53.36290145 9.09160423 C-37.29187881 -1.54047665 -18.40161554 -0.11291447 0 0 Z " fill="#FC4D03" transform="translate(157.0796983242035,193.3942356109619)"/>
<path d="M0 0 C0.93826126 -0.0066568 1.87652252 -0.0133136 2.84321594 -0.02017212 C4.82245944 -0.03025966 6.80173668 -0.03499035 8.78100586 -0.03466797 C11.77451187 -0.03902427 14.76652152 -0.07533907 17.75976562 -0.11328125 C27.83297103 -0.17317451 36.81612065 -0.04972429 46.11328125 4.3359375 C47.78003906 5.109375 47.78003906 5.109375 49.48046875 5.8984375 C63.04932972 13.67622696 63.04932972 13.67622696 68.11328125 19.3359375 C68.11328125 19.9959375 68.11328125 20.6559375 68.11328125 21.3359375 C69.10328125 21.6659375 70.09328125 21.9959375 71.11328125 22.3359375 C82.74758254 37.59683061 86.87419853 55.41905014 85.11328125 74.3359375 C84.0069181 80.17789583 82.07218984 85.73538574 80.11328125 91.3359375 C79.7582426 92.66365601 79.41106123 93.99421623 79.11328125 95.3359375 C84.69942031 100.26236578 84.69942031 100.26236578 90.42578125 105.0234375 C95.86418869 109.70299739 95.86418869 109.70299739 96.4296875 113.41015625 C96.63875644 117.49037262 96.48354763 119.73585062 94.30078125 123.2734375 C90.78307626 126.59013077 88.27889411 127.96512494 83.36328125 127.84765625 C77.38920637 126.48896908 72.86482713 121.20685684 68.86328125 116.8359375 C67.50203125 115.5984375 67.50203125 115.5984375 66.11328125 114.3359375 C62.0440173 114.57530597 59.75585799 116.1106202 56.61328125 118.5859375 C50.87954278 122.74738405 44.86042914 125.24846532 38.11328125 127.3359375 C37.51370605 127.52357666 36.91413086 127.71121582 36.29638672 127.90454102 C29.18747847 129.817561 21.92714608 129.67302221 14.62207031 129.65161133 C12.38166031 129.64846332 10.14259024 129.67193126 7.90234375 129.69726562 C-10.83608503 129.78125847 -25.71029035 124.90421957 -39.88671875 112.3359375 C-40.51191406 111.80484375 -41.13710938 111.27375 -41.78125 110.7265625 C-51.93222129 101.46924331 -59.10493822 87.00167465 -60.02758789 73.23388672 C-60.84048641 53.06014947 -58.10531014 36.79959505 -44.51171875 21.0234375 C-32.48938948 8.37473477 -17.63446001 0.04416484 0 0 Z " fill="#FC4D04" transform="translate(393.88671875,196.6640625)"/>
<path d="M0 0 C1.17874695 -0.00852997 2.3574939 -0.01705994 3.57196045 -0.02584839 C5.49136192 -0.02448883 5.49136192 -0.02448883 7.44953918 -0.02310181 C8.8217251 -0.02909159 10.19390765 -0.03589817 11.56608582 -0.04345703 C15.28331083 -0.06108254 19.00044368 -0.06581106 22.71770644 -0.0670886 C25.04454418 -0.06851318 27.37135873 -0.07278866 29.69819069 -0.07808304 C37.8287008 -0.09657475 45.95914546 -0.10475508 54.0896759 -0.10317993 C61.64686912 -0.10198007 69.20377603 -0.12305402 76.76089686 -0.15466726 C83.26560809 -0.18090005 89.77022624 -0.19154424 96.2749899 -0.19026911 C100.15253703 -0.18976136 104.02982979 -0.19533998 107.90732384 -0.21662521 C111.55922779 -0.23612521 115.21063793 -0.23605292 118.86256027 -0.22159195 C120.82492238 -0.2185354 122.78728516 -0.23509931 124.74957275 -0.25247192 C135.27485604 -0.17845034 144.40363957 1.76359502 152.21052551 9.20101929 C160.59041806 18.87997814 161.72627373 27.91164306 161.17878723 40.27230835 C160.79791276 44.51278001 159.31108631 47.75366188 156.99958801 51.26742554 C156.55228333 51.97254272 156.10497864 52.67765991 155.64411926 53.40414429 C150.396521 61.01527206 143.99665807 65.21690478 134.99958801 67.26742554 C130.43634722 67.69448111 125.89754314 67.69801966 121.31672668 67.68734741 C119.95556956 67.69470064 118.59441864 67.70329049 117.23327637 67.7130127 C113.55951113 67.73510738 109.88597098 67.73816543 106.21214843 67.73626518 C103.1334863 67.7361449 100.05487088 67.74473241 96.97622186 67.7530427 C89.70590227 67.77223399 82.43569747 67.77517647 75.1653595 67.7684021 C67.69268254 67.76176665 60.22049985 67.78461519 52.74792308 67.82171583 C46.30766359 67.85251786 39.86756223 67.86376148 33.42723066 67.85987902 C29.59156554 67.85782207 25.75628515 67.86312565 21.92069054 67.88777161 C18.30967693 67.91021078 14.69946073 67.90802105 11.08844185 67.88784409 C9.15134479 67.88286728 7.21423167 67.90232879 5.27723694 67.92285156 C-5.25305496 67.82294903 -13.96930586 65.27765368 -22.00041199 58.26742554 C-23.94963074 55.68148804 -23.94963074 55.68148804 -25.68791199 52.89242554 C-26.26927917 51.97719116 -26.85064636 51.06195679 -27.44963074 50.11898804 C-31.94624085 41.85066213 -32.58522441 31.63368909 -30.31291199 22.50570679 C-29.37386346 20.26372844 -28.31466041 18.31044723 -27.00041199 16.26742554 C-26.57631042 15.57262085 -26.15220886 14.87781616 -25.71525574 14.16195679 C-19.74320618 5.29537625 -10.7494435 0.03532356 0 0 Z " fill="#FEFEFE" transform="translate(136.0004119873047,224.73257446289063)"/>
<path d="M0 0 C2.26503109 -0.00964253 4.52912954 -0.04064516 6.79394531 -0.07226562 C17.89604401 -0.15517492 26.29683091 0.91488997 35.08691406 8.13476562 C43.16299636 16.30176067 44.50089495 24.61149105 44.55834961 35.54345703 C44.45130894 42.48795509 43.38243844 47.57180577 39.16894531 53.24023438 C38.78480469 53.81644531 38.40066406 54.39265625 38.00488281 54.98632812 C33.39305207 61.27661428 25.63478989 65.41614772 18.16894531 67.24023438 C13.39241336 67.69456688 8.65163258 67.70457766 3.85644531 67.67773438 C1.9740918 67.70770508 1.9740918 67.70770508 0.05371094 67.73828125 C-12.05292489 67.73197242 -20.85478282 65.22416837 -29.66308594 56.75195312 C-37.35958747 47.83510541 -38.8256287 37.67463111 -38.10058594 26.28369141 C-37.09229411 18.63930501 -32.2981338 11.74079534 -26.69824219 6.63867188 C-18.30181391 0.35013354 -10.15763503 0.02614578 0 0 Z " fill="#FEFDFD" transform="translate(402.8310546875,227.759765625)"/>
<path d="M0 0 C1.16015625 0.02707031 1.16015625 0.02707031 2.34375 0.0546875 C3.41109375 0.08949219 3.41109375 0.08949219 4.5 0.125 C6.54099594 0.125 8.58204393 0.10850414 10.62280273 0.07739258 C13.9989989 0.02612994 17.37478633 -0.01121659 20.7512207 -0.03979492 C22.20701581 -0.05491373 23.66276515 -0.07540912 25.1184082 -0.10131836 C27.22358285 -0.13777469 29.32816076 -0.15473434 31.43359375 -0.16796875 C32.69228271 -0.1836792 33.95097168 -0.19938965 35.24780273 -0.21557617 C38.70315634 0.14627491 40.10754471 0.64740395 42.5 3.125 C42.83491549 5.73734083 42.62815713 7.65509052 41.9375 10.1875 C41.41957523 12.48116685 41.7883622 13.91101575 42.5 16.125 C40.19 16.125 37.88 16.125 35.5 16.125 C34.84 14.805 34.18 13.485 33.5 12.125 C33.17 13.445 32.84 14.765 32.5 16.125 C30.19 16.125 27.88 16.125 25.5 16.125 C25.5 12.495 25.5 8.865 25.5 5.125 C23.85 5.125 22.2 5.125 20.5 5.125 C20.5 8.755 20.5 12.385 20.5 16.125 C18.19 16.125 15.88 16.125 13.5 16.125 C13.5 12.495 13.5 8.865 13.5 5.125 C11.19 5.455 8.88 5.785 6.5 6.125 C7.16 6.785 7.82 7.445 8.5 8.125 C8.875 10.5625 8.875 10.5625 8.5 13.125 C5.55600047 15.95447323 3.46942865 16.51655742 -0.5625 16.4375 C-1.84833984 16.43169922 -1.84833984 16.43169922 -3.16015625 16.42578125 C-5.5 16.125 -5.5 16.125 -8.5 14.125 C-8.5 13.135 -8.5 12.145 -8.5 11.125 C-5.86 11.125 -3.22 11.125 -0.5 11.125 C-1.469375 10.815625 -2.43875 10.50625 -3.4375 10.1875 C-6.5 9.125 -6.5 9.125 -7.5 8.125 C-7.75 5.1875 -7.75 5.1875 -7.5 2.125 C-4.32988425 0.0115895 -3.60829256 -0.10824878 0 0 Z " fill="#FEF3EE" transform="translate(136.5,200.875)"/>
</svg>
