<?xml version="1.0" encoding="UTF-8"?>
<svg version="1.1" xmlns="http://www.w3.org/2000/svg" width="2000" height="2000">
<path d="M0 0 C660 0 1320 0 2000 0 C2000 660 2000 1320 2000 2000 C1340 2000 680 2000 0 2000 C0 1340 0 680 0 0 Z " fill="#FC5809" transform="translate(0,0)"/>
<path d="M0 0 C1.57339324 -0.00303101 3.14678501 -0.00692519 4.72017425 -0.01159257 C8.98666788 -0.02175945 13.25307642 -0.01972006 17.51957667 -0.01541197 C22.1435125 -0.01292384 26.76742892 -0.02198468 31.39135742 -0.02944946 C40.42910853 -0.04214196 49.46682985 -0.04399691 58.50458837 -0.0416492 C65.85949677 -0.0398594 73.21439619 -0.04162981 80.56930351 -0.04587364 C81.61983462 -0.04646883 82.67036572 -0.04706402 83.7527311 -0.04767724 C85.8875742 -0.04888912 88.02241731 -0.05010326 90.15726041 -0.05131962 C110.13991965 -0.06217462 130.12256198 -0.06004262 150.10522216 -0.05393478 C168.3357477 -0.04877004 186.56621974 -0.06001303 204.7967347 -0.07903299 C223.5680663 -0.09846524 242.33937266 -0.10665782 261.11071438 -0.10290974 C271.62833762 -0.10100552 282.14591538 -0.10340859 292.66353035 -0.11762428 C301.61971533 -0.12960813 310.57582683 -0.13086539 319.53201295 -0.11883412 C324.09010768 -0.11299353 328.64806849 -0.11171003 333.20615387 -0.12383652 C357.21436377 -0.18330202 381.25233282 -0.14512631 404.5009613 6.68501282 C406.65984003 7.30627667 408.83006085 7.86772848 411.00535583 8.42866516 C468.89038445 23.9145449 517.19389073 66.79402287 546.7822113 117.85835266 C575.20438171 167.67213549 584.95363406 224.75740497 575.50144958 281.26069641 C575.31654968 282.45807434 575.31654968 282.45807434 575.12791443 283.67964172 C571.86704926 304.30996136 563.66911904 324.20280102 555.50144958 343.26069641 C578.76644958 343.75569641 578.76644958 343.75569641 602.50144958 344.26069641 C602.50144958 388.15069641 602.50144958 432.04069641 602.50144958 477.26069641 C530.6856601 477.32108876 530.6856601 477.32108876 508.45999146 477.33764648 C507.66733149 477.33823849 506.87467153 477.33883049 506.05799157 477.33944043 C479.36509912 477.35932223 452.6722059 477.37507152 425.97930908 477.38772583 C425.10789489 477.38814 424.2364807 477.38855417 423.33866002 477.38898089 C404.39866804 477.39796045 385.45867583 477.40627088 366.51868327 477.4138924 C357.22997967 477.41763428 347.94127614 477.42152396 338.65257263 477.42549133 C337.26609556 477.42607975 337.26609556 477.42607975 335.85160885 477.42668005 C305.91328371 477.439455 275.9749756 477.46198213 246.03666077 477.48958807 C215.2609257 477.51791453 184.48520004 477.53635939 153.70945215 477.54244138 C149.35862189 477.5433058 145.00779166 477.5442827 140.65696144 477.54532814 C139.80068918 477.54553041 138.94441692 477.54573268 138.06219701 477.54594108 C124.30068603 477.54948073 110.53920424 477.56338006 96.77770514 477.58119251 C82.92936585 477.59889487 69.08105539 477.6055902 55.2327052 477.60120054 C47.01383249 477.59892573 38.79506562 477.6049398 30.5762121 477.62308904 C24.42429735 477.63574077 18.27248344 477.63253853 12.12056462 477.6233931 C9.64244736 477.62213133 7.16432102 477.62588634 4.6862215 477.63534596 C-8.66472571 477.68332082 -21.44301254 477.16888277 -34.56980117 474.62606863 C-37.53532049 474.06429608 -40.51830864 473.61198719 -43.49855042 473.13569641 C-82.15919284 465.16010243 -117.40955445 445.56390654 -146.49855042 419.26069641 C-147.56707264 418.3135308 -148.63608021 417.36691242 -149.70558167 416.42085266 C-156.07455207 410.74092871 -161.99254649 404.79042971 -167.49855042 398.26069641 C-168.17071594 397.46502258 -168.17071594 397.46502258 -168.85646057 396.65327454 C-197.40914153 362.60263233 -216.38839723 321.76608122 -224.12355042 277.94819641 C-224.36331604 276.6526886 -224.60308167 275.35718079 -224.85011292 274.02241516 C-234.21599313 212.51820541 -218.34961302 147.629959 -182.03956604 97.23579407 C-176.90863586 90.33913792 -171.37216657 83.82525063 -165.55323792 77.49897766 C-163.61752439 75.39030114 -161.74035065 73.24283313 -159.87355042 71.07319641 C-154.18331828 64.57749763 -148.10599263 58.9800132 -141.36573792 53.57319641 C-139.5375724 52.09870869 -137.72788458 50.60079906 -135.94386292 49.07319641 C-98.45355491 17.1665513 -48.93604377 -0.13670374 0 0 Z " fill="#FEFEFE" transform="translate(1085.498550415039,761.7393035888672)"/>
<path d="M0 0 C1.02067566 0.00478867 2.04135132 0.00957733 3.09295654 0.01451111 C6.46031009 0.03215819 9.82753362 0.05793761 13.19482422 0.08496094 C15.55589765 0.10167789 17.91697147 0.11833958 20.27804565 0.13494873 C25.23260504 0.17140105 30.18710155 0.2126008 35.14160156 0.25634766 C41.43372466 0.31096257 47.72581157 0.34774364 54.01808357 0.37997818 C58.90181973 0.40811966 63.78538958 0.4491896 68.66900253 0.49358368 C70.98496052 0.51255189 73.3009612 0.52696145 75.61697769 0.53638458 C94.73984241 0.62191678 113.29250092 2.06629071 131.74951172 7.31933594 C132.8393335 7.62234619 133.92915527 7.92535645 135.05200195 8.23754883 C169.07139202 17.90280086 199.22230501 34.5507745 225.62451172 58.06933594 C226.24535645 58.62169922 226.86620117 59.1740625 227.50585938 59.74316406 C234.72471095 66.21212242 241.55252335 72.70415051 247.52294922 80.37402344 C249.78200045 83.27131963 252.16450363 86.03585132 254.56201172 88.81933594 C287.52460855 128.48618975 305.30504264 180.84529603 306.62451172 232.06933594 C306.65174316 232.81699219 306.67897461 233.56464844 306.70703125 234.33496094 C307.45664117 255.60691037 305.28041564 277.53118937 299.62451172 298.06933594 C299.41455566 298.84470703 299.20459961 299.62007812 298.98828125 300.41894531 C289.87436221 333.59175741 275.44866261 364.33388644 253.62451172 391.06933594 C252.41988281 392.57947266 252.41988281 392.57947266 251.19091797 394.12011719 C240.20792609 407.66474601 227.63576388 420.65227454 213.62451172 431.06933594 C213.09438477 431.46523926 212.56425781 431.86114258 212.01806641 432.26904297 C180.74586152 455.4960054 143.64982711 472.69568269 104.62451172 477.06933594 C103.92390121 477.15480682 103.22329071 477.24027771 102.50144958 477.32833862 C93.11205523 478.33639645 83.7155418 478.23348404 74.28466797 478.23730469 C72.39448523 478.24052885 70.50430273 478.24389373 68.61412048 478.24739075 C64.65444361 478.25335813 60.69478847 478.25523353 56.73510742 478.25463867 C52.73343326 478.25455799 48.73187497 478.26140924 44.73022461 478.27514648 C-15.42388456 478.47815174 -15.42388456 478.47815174 -37.00048828 473.31933594 C-38.73371338 472.92464111 -38.73371338 472.92464111 -40.50195312 472.52197266 C-80.5788661 463.13060673 -116.76942131 442.48525562 -146.37548828 414.06933594 C-146.93768066 413.534375 -147.49987305 412.99941406 -148.07910156 412.44824219 C-156.67952641 404.22525801 -164.31281343 395.64062577 -171.37548828 386.06933594 C-171.80313477 385.49715332 -172.23078125 384.9249707 -172.67138672 384.33544922 C-179.18449258 375.59625153 -184.9777354 366.53456636 -190.37548828 357.06933594 C-190.71821777 356.47572266 -191.06094727 355.88210938 -191.4140625 355.27050781 C-203.38465615 334.38929994 -211.69070195 310.61411541 -216.75048828 287.13183594 C-216.89389648 286.47304443 -217.03730469 285.81425293 -217.18505859 285.13549805 C-220.14982307 270.13314059 -220.72442753 255.03107463 -220.69116211 239.78442383 C-220.6880024 236.77030177 -220.71157105 233.75716593 -220.73681641 230.74316406 C-220.79353426 213.64425534 -219.18366643 196.89720534 -214.56298828 180.38183594 C-214.30219482 179.425271 -214.04140137 178.46870605 -213.77270508 177.4831543 C-212.99422841 174.67215773 -212.19100392 171.86978588 -211.37548828 169.06933594 C-211.15022461 168.28494141 -210.92496094 167.50054688 -210.69287109 166.69238281 C-199.76413638 129.34845523 -178.15642444 95.95085852 -151.37548828 68.06933594 C-150.51955078 67.17214844 -149.66361328 66.27496094 -148.78173828 65.35058594 C-143.01028318 59.43301805 -136.90973754 54.12283551 -130.37548828 49.06933594 C-129.72499512 48.55886719 -129.07450195 48.04839844 -128.40429688 47.52246094 C-95.5083112 21.84754529 -58.5929827 6.66102828 -17.37548828 1.06933594 C-16.37828766 0.8981424 -15.38108704 0.72694885 -14.35366821 0.55056763 C-9.57426245 -0.12803061 -4.81805463 -0.04167867 0 0 Z " fill="#FEFEFE" transform="translate(532.37548828125,760.9306640625)"/>
<path d="M0 0 C1.43839926 -0.00231209 2.87679733 -0.00549357 4.315193 -0.00945449 C8.21768279 -0.01770901 12.12007322 -0.01372035 16.0225631 -0.00748205 C20.2510867 -0.00291957 24.4795943 -0.00996011 28.70811462 -0.01544189 C36.973434 -0.02429851 45.23871688 -0.02243026 53.50403764 -0.01661661 C60.22926046 -0.01208384 66.95447312 -0.01149418 73.67969704 -0.01366425 C74.64006709 -0.01397071 75.60043714 -0.01427718 76.58990932 -0.01459293 C78.54147742 -0.01523244 80.49304552 -0.01588087 82.44461361 -0.01653811 C100.71271495 -0.02223088 118.98079616 -0.01570088 137.24889419 -0.00493738 C152.8838198 0.00399001 168.51871568 0.00245073 184.15364075 -0.0067749 C202.35250392 -0.01750855 220.55134946 -0.02167416 238.75021535 -0.01555037 C240.69578476 -0.01491335 242.64135418 -0.01428461 244.5869236 -0.01366425 C246.02242319 -0.01320142 246.02242319 -0.01320142 247.48692277 -0.01272924 C254.19234807 -0.01101103 260.8977621 -0.01389859 267.60318565 -0.01862335 C275.79206767 -0.02426701 283.9809114 -0.02264349 292.1697891 -0.01206186 C296.33849679 -0.00685051 300.50714096 -0.00466957 304.67584801 -0.01136017 C333.02167529 -0.05284393 359.20319239 0.06892071 384.96784973 13.25396729 C385.93464661 13.73865479 386.90144348 14.22334229 387.89753723 14.72271729 C394.14330961 17.97536329 399.61605701 21.68557844 404.96784973 26.25396729 C405.91659973 27.05705322 406.86534973 27.86013916 407.84284973 28.68756104 C427.84209603 46.05025075 441.84030254 70.63738371 443.96784973 97.25396729 C444.70421643 110.8444321 444.31247064 123.29109509 439.96784973 136.25396729 C439.59402161 137.37931885 439.22019348 138.50467041 438.83503723 139.66412354 C428.70617613 167.80357539 408.41587075 189.566134 381.71784973 202.56646729 C364.63376051 210.60176734 348.71925812 213.40252427 329.93518066 213.40786743 C328.39914093 213.41188725 326.86310224 213.41632633 325.32706481 213.42114699 C321.1176334 213.43306048 316.90821343 213.43874874 312.6987685 213.44332814 C308.15384673 213.44930414 303.60893849 213.46090891 299.06402588 213.47161865 C288.0935033 213.49609677 277.12297626 213.51076293 266.1524348 213.52367872 C263.05110368 213.52739396 259.949773 213.53136692 256.84844232 213.53543139 C237.56716467 213.56067089 218.28588626 213.58271212 199.00459576 213.59515953 C194.54239588 213.59808896 190.08019603 213.60105066 185.61799622 213.60406494 C184.5090142 213.60481099 183.40003219 213.60555704 182.25744466 213.6063257 C164.30672996 213.61896987 146.35611453 213.65218326 128.40544619 213.69386677 C109.95312805 213.73636203 91.50086062 213.75986329 73.04849368 213.76508009 C62.69741925 213.76848555 52.34649995 213.78013847 41.99547386 213.81318283 C33.17719015 213.84128895 24.35909342 213.85213653 15.54076841 213.84098737 C11.04819334 213.8358277 6.55600918 213.83851059 2.06349182 213.86345291 C-31.631877 214.04016806 -59.11663338 208.61084671 -84.56340027 184.81646729 C-101.02255865 167.73227757 -110.81374694 147.47035971 -115.03215027 124.25396729 C-115.20488464 123.46651123 -115.37761902 122.67905518 -115.55558777 121.86773682 C-120.47765138 94.8720334 -111.57917938 66.35343029 -96.32121277 44.26177979 C-79.2122755 21.780753 -55.62026103 6.02411935 -27.48079032 1.70942903 C-18.27854379 0.49089548 -9.2959268 -0.03197602 0 0 Z " fill="#FC5200" transform="translate(1102.0321502685547,892.7460327148438)"/>
</svg>
