<?xml version="1.0" encoding="UTF-8"?>
<svg version="1.1" xmlns="http://www.w3.org/2000/svg" width="2000" height="2000">
<path d="M0 0 C660 0 1320 0 2000 0 C2000 660 2000 1320 2000 2000 C1340 2000 680 2000 0 2000 C0 1340 0 680 0 0 Z " fill="#FEFEFE" transform="translate(0,0)"/>
<path d="M0 0 C1.49809305 -0.00187149 2.99618562 -0.00417354 4.49427742 -0.00686532 C8.58485202 -0.01294804 12.67540609 -0.01285391 16.76598418 -0.01167095 C21.18812917 -0.01146604 25.61026772 -0.0169943 30.03240967 -0.02172852 C38.68709154 -0.03001657 47.34176659 -0.03278253 55.9964521 -0.03334089 C63.03646361 -0.03381699 70.07647289 -0.03587642 77.11648369 -0.03904152 C97.1031736 -0.04784356 117.08985815 -0.05246167 137.07655001 -0.05171105 C138.15286795 -0.05167109 139.22918588 -0.05163113 140.33811951 -0.05158997 C141.41576118 -0.05154909 142.49340285 -0.0515082 143.60370033 -0.05146609 C161.05693807 -0.05105989 178.51015421 -0.06062401 195.96338571 -0.07472833 C213.91067935 -0.08911673 231.85796248 -0.09599714 249.80526203 -0.09513456 C259.87059659 -0.09480341 269.93590852 -0.09751437 280.00123787 -0.10831261 C288.57313572 -0.11745015 297.14500068 -0.11956631 305.71690131 -0.11280318 C310.08368031 -0.10955415 314.45039631 -0.10942226 318.81716919 -0.11815643 C339.17918173 -0.15632396 359.01213937 -0.04212774 378.97947693 4.57121277 C380.37746521 4.87768738 380.37746521 4.87768738 381.80369568 5.19035339 C389.84792769 6.99104968 397.83374109 9.04421382 405.41697693 12.32121277 C409.01412646 13.87400529 412.61424382 15.39117065 416.26463318 16.81340027 C451.70205272 30.82935881 484.89188863 56.86969826 507.97947693 87.13371277 C508.39761658 87.67544128 508.81575623 88.2171698 509.24656677 88.77531433 C516.92978402 98.77106504 523.63975573 109.24310252 529.97947693 120.13371277 C530.34138123 120.74617859 530.70328552 121.35864441 531.07615662 121.9896698 C540.86898966 138.7030839 547.87386836 157.33529029 552.47361755 176.11759949 C552.96389839 178.07162419 553.5099188 180.0114001 554.05760193 181.95011902 C563.34854506 215.75112483 562.65019364 253.8965906 555.97947693 288.13371277 C555.80287537 289.04765808 555.6262738 289.96160339 555.44432068 290.90324402 C550.03341921 317.63710537 538.35350975 344.06052415 523.97947693 367.13371277 C528.78432887 370.56574987 533.59538259 372.94611025 539.16697693 374.88371277 C540.33615662 375.29105652 541.5053363 375.69840027 542.70994568 376.11808777 C548.34820531 377.45930232 554.20096096 377.68921154 559.97947693 378.13371277 C559.97947693 410.80371277 559.97947693 443.47371277 559.97947693 477.13371277 C543.60488277 477.13371277 543.60488277 477.13371277 537.10447693 475.94621277 C536.35182556 475.81311707 535.59917419 475.68002136 534.82371521 475.54289246 C508.81025965 470.66639229 484.38989856 458.13011457 464.35447693 441.01652527 C462.1809238 439.29341243 460.58529546 438.04308964 457.97947693 437.13371277 C455.82309979 437.89770412 455.82309979 437.89770412 453.73338318 439.43058777 C452.90717468 439.97239685 452.08096619 440.51420593 451.22972107 441.07243347 C450.3427655 441.67015564 449.45580994 442.26787781 448.54197693 442.88371277 C420.2967629 461.09325179 388.32722676 472.35951621 354.97947693 476.13371277 C354.19497378 476.2229019 353.41047064 476.31209104 352.60219467 476.40398288 C344.78718395 477.20387001 337.01834625 477.27971942 329.16896057 477.27415466 C327.6936294 477.27674363 326.21829892 477.27975825 324.74296939 477.28315806 C320.71519657 477.29116906 316.68744162 477.29301431 312.65966177 477.29375553 C308.30494307 477.29561647 303.95023342 477.30316899 299.59552002 477.30989075 C290.08473539 477.32343294 280.57395499 477.32949246 271.06316233 477.33390141 C265.11550591 477.33667101 259.1678511 477.34090967 253.22019577 477.34540558 C236.72703974 477.35759327 220.233885 477.36789331 203.74072456 477.37128067 C202.68652126 477.37150024 201.63231795 477.3717198 200.54616909 477.37194602 C199.48955651 477.3721643 198.43294393 477.37238258 197.34431279 477.37260747 C195.2034951 477.37305092 193.06267742 477.37349749 190.92185974 477.37394714 C189.85995807 477.37416857 188.79805641 477.37439 187.7039759 477.37461814 C170.51464883 477.3785624 153.32536425 477.39600732 136.13605358 477.41930667 C118.45429822 477.44307843 100.77256412 477.45548518 83.09079254 477.45664859 C73.17681364 477.45756212 63.2628901 477.46323286 53.34892654 477.4814682 C44.90373258 477.49694809 36.45861111 477.50194352 28.01340564 477.4937301 C23.71305711 477.48985121 19.41285418 477.49061616 15.11252403 477.50478745 C-6.40000947 477.57161556 -27.20301058 476.86762452 -48.14552307 471.38371277 C-49.1472052 471.12477234 -50.14888733 470.86583191 -51.18092346 470.5990448 C-86.93625194 461.08514189 -119.42831153 442.88796551 -146.35255432 417.61418152 C-148.55028151 415.57090661 -150.78393371 413.62222474 -153.08302307 411.69621277 C-183.76264325 384.9547633 -204.47812353 344.52249696 -216.02052307 306.13371277 C-216.3840387 304.92932556 -216.3840387 304.92932556 -216.75489807 303.7006073 C-223.29583511 281.6022332 -225.20899318 259.01584714 -225.26075745 236.05192566 C-225.27044318 233.46752979 -225.30157124 230.88393842 -225.33302307 228.29972839 C-225.39990028 217.67188255 -224.48236764 207.62329552 -222.4226532 197.19740295 C-221.99091855 194.98178541 -221.59542845 192.761476 -221.20484924 190.53825378 C-213.72121957 148.42654177 -192.88990462 110.12706823 -165.02052307 78.13371277 C-164.15040588 77.09537292 -164.15040588 77.09537292 -163.26271057 76.03605652 C-153.39610451 64.35974633 -142.28400518 54.2126399 -130.02052307 45.13371277 C-129.46960999 44.71670105 -128.9186969 44.29968933 -128.35108948 43.87004089 C-91.35148442 15.87742143 -46.4074298 -0.05540424 0 0 Z " fill="#EA580C" transform="translate(1106.020523071289,761.8662872314453)"/>
<path d="M0 0 C2.18268883 0.01864501 4.36538255 0.03672417 6.54808044 0.05427551 C11.08351098 0.09337828 15.61876414 0.14059875 20.15405273 0.19360352 C25.90428185 0.25996249 31.65442596 0.30361507 37.40490818 0.34086132 C41.90003756 0.37292119 46.39496313 0.41830242 50.88993645 0.46734047 C53.00772178 0.48872054 55.12555419 0.50594049 57.24341011 0.51851463 C105.49471294 0.83388856 150.90579689 15.90780581 189.49609375 45.08203125 C190.13015137 45.55527832 190.76420898 46.02852539 191.41748047 46.51611328 C198.58718281 51.88643366 205.15996366 57.47696806 211.390625 63.94140625 C213.09517399 65.6744171 214.77919432 67.20750414 216.68359375 68.70703125 C259.38609928 104.76692481 281.64771773 168.14728738 286.30639648 222.04199219 C286.68521724 228.1128751 286.69349125 234.1888006 286.68359375 240.26953125 C286.68268738 241.30207031 286.68268738 241.30207031 286.6817627 242.35546875 C286.6577498 252.4385406 286.24041799 262.13145434 284.49609375 272.08203125 C284.22319176 273.86817474 283.95253912 275.65466271 283.68359375 277.44140625 C281.66922043 290.3757462 278.72137837 302.69709863 274.49609375 315.08203125 C274.18575195 316.00564453 273.87541016 316.92925781 273.55566406 317.88085938 C266.57926334 338.3624149 257.43128791 358.62438199 244.49609375 376.08203125 C244.05974609 376.68241211 243.62339844 377.28279297 243.17382812 377.90136719 C228.31286337 398.34273482 211.96558257 417.0679375 191.49609375 432.08203125 C190.66609863 432.70319824 190.66609863 432.70319824 189.81933594 433.33691406 C169.98350393 448.1761983 149.11491022 458.96889417 125.73709106 467.11352539 C123.79949943 467.79147658 121.86908181 468.48983176 119.93920898 469.18945312 C91.61511953 479.00893553 62.25577851 478.78454114 32.69610596 478.48364258 C28.65472703 478.44794265 24.61341887 478.43509648 20.5719099 478.4232235 C15.66508429 478.40831557 10.75832995 478.38332541 5.8515625 478.35546875 C4.94993063 478.35055798 4.04829876 478.3456472 3.11934471 478.34058762 C-59.17997691 477.94177737 -118.26086737 461.48497876 -163.82470703 416.73046875 C-165.69302106 414.89638089 -167.58145932 413.08407742 -169.46875 411.26953125 C-177.4011864 403.56784644 -184.7093676 395.67988086 -191.26123047 386.76904297 C-192.48255586 385.11101576 -193.72768541 383.47326627 -194.9765625 381.8359375 C-215.17352141 354.92931772 -229.93898224 322.20471391 -236.11865234 289.13916016 C-236.51444306 287.02576814 -236.93848542 284.91944323 -237.3671875 282.8125 C-249.50628428 221.75214151 -235.63318279 157.41831919 -202.06738281 105.41796875 C-197.5689633 98.69703216 -192.61264638 92.34598249 -187.50390625 86.08203125 C-187.00922852 85.47166016 -186.51455078 84.86128906 -186.00488281 84.23242188 C-174.80105626 70.50642461 -162.49777832 57.94301092 -148.24560547 47.38378906 C-146.51015808 46.08670391 -144.80501049 44.75670603 -143.1015625 43.41796875 C-101.31882799 11.05740463 -51.87366981 -0.59833014 0 0 Z " fill="#EA580C" transform="translate(574.50390625,760.91796875)"/>
<path d="M0 0 C1.71022809 -0.00391162 1.71022809 -0.00391162 3.45500624 -0.00790226 C5.35007983 -0.00455618 5.35007983 -0.00455618 7.28343773 -0.0011425 C8.63082051 -0.00229377 9.97820297 -0.00388133 11.32558477 -0.00586975 C15.04130249 -0.01006302 18.75699468 -0.0079723 22.47271252 -0.00488353 C26.47574923 -0.00262934 30.47878142 -0.00610935 34.48181725 -0.00886345 C42.33294272 -0.01332163 50.18405866 -0.01234397 58.03518452 -0.00945081 C64.42182407 -0.00719472 70.80846095 -0.00688516 77.19510078 -0.00797462 C78.10330409 -0.00812786 79.01150739 -0.00828109 79.947232 -0.00843897 C81.79227023 -0.00875869 83.63730847 -0.00908291 85.4823467 -0.00941156 C102.80884213 -0.01226707 120.13533228 -0.00897939 137.46182685 -0.00361119 C152.30767042 0.00084638 167.15350617 0.00008972 181.99934959 -0.00452995 C199.24108934 -0.00989267 216.48282444 -0.01198127 233.72456491 -0.00891769 C235.56719104 -0.00859915 237.40981718 -0.00828478 239.25244331 -0.00797462 C240.61226968 -0.00774321 240.61226968 -0.00774321 241.99956728 -0.00750712 C248.36653713 -0.00664627 254.73350401 -0.00809576 261.1004734 -0.01045418 C268.87810203 -0.01327169 276.65572058 -0.01247342 284.43334807 -0.00717343 C288.39677127 -0.004561 292.36017773 -0.00348911 296.32360077 -0.00682259 C336.79573901 -0.03798729 336.79573901 -0.03798729 348.47298241 2.68834114 C349.57682274 2.94333382 349.57682274 2.94333382 350.70296288 3.20347786 C378.92724206 10.21635027 404.71779412 28.13090042 419.81795311 53.16417122 C433.9362477 77.48217235 439.5925555 105.36765786 432.29427147 133.02183723 C427.08371981 150.31942359 418.22718022 165.19520148 405.66048241 178.12584114 C404.91411522 178.94568489 404.16774803 179.76552864 403.39876366 180.61021614 C386.63903805 198.45032075 359.28624996 212.1859569 334.64394897 213.25694364 C333.57009179 213.25981636 332.49623462 213.26268907 331.38983631 213.26564884 C329.52075946 213.2741857 329.52075946 213.2741857 327.61392349 213.28289503 C326.23901658 213.28418748 324.86410958 213.28537554 323.4892025 213.28647041 C322.02231082 213.29120466 320.55542044 213.29635601 319.08853155 213.30188805 C315.06087007 213.31576367 311.03321761 213.32336914 307.00553834 213.32986104 C303.54969644 213.33624258 300.09386925 213.34631132 296.63803654 213.3564217 C285.25117346 213.38971471 273.86430142 213.4112647 262.47740564 213.42962155 C259.50967428 213.43441978 256.54194329 213.43940273 253.57421231 213.44442677 C235.12399498 213.47540816 216.67377445 213.50207906 198.2235384 213.51884556 C193.95146173 213.52279474 189.67938513 213.52679777 185.40730858 213.53087044 C184.34557002 213.5318788 183.28383146 213.53288716 182.189919 213.53392608 C165.01638825 213.55090833 147.84300222 213.5919909 130.66954201 213.64289343 C113.01506739 213.6947885 95.36066696 213.72380368 77.70611674 213.73104244 C67.8031611 213.73569041 57.9004422 213.75029067 47.99756241 213.79078674 C39.55768617 213.82525904 31.11808944 213.83895709 22.67814689 213.8263626 C18.37968621 213.82057521 14.08181528 213.82411885 9.78344536 213.85453224 C-23.49010883 214.07713998 -51.13031314 207.97086519 -75.55826759 184.02818489 C-96.41438414 162.77499497 -106.41533615 135.53496298 -106.58951759 106.00084114 C-106.5988633 104.90425179 -106.608209 103.80766243 -106.61783791 102.67784309 C-106.50882959 74.79477438 -93.47482154 49.80331203 -74.33951759 30.12584114 C-67.91164402 23.77101159 -61.18890824 18.60528204 -53.33951759 14.12584114 C-52.29150978 13.52771614 -51.24350197 12.92959114 -50.16373634 12.31334114 C-37.53068446 5.55239988 -24.30190099 1.73110357 -9.96451759 1.26646614 C-6.43702425 1.07749328 -3.6872647 0.00060469 0 0 Z " fill="#FEFEFE" transform="translate(1114.3395175933838,892.8741588592529)"/>
</svg>
